<svg fill="#ffffff" xmlns="http://www.w3.org/2000/svg" width="800px" height="800px" viewBox="0 0 553.857 553.858">
  <path d="M273.197 60.277v55.83h247.864c18.084 0 32.797 14.713 32.797 32.797v279.626c0 18.085-14.713 32.797-32.797 32.797H273.197v52.553c0 18.237-13.372 28.078-25.955 28.082-5.098 0-12.718-1.515-20.08-8.722L9.811 300.218C3.482 294.017 0 285.744 0 276.922c0-8.821 3.485-17.092 9.808-23.283l217.351-213.724c7.366-7.209 14.985-8.721 20.08-8.721 12.583 0 25.958 9.845 25.958 28.083z"/>
</svg>
